<svg width="512" height="70" viewBox="0 0 512 512" style="color:currentColor" xmlns="http://www.w3.org/2000/svg" class="h-full w-full"><rect width="512" height="512" x="0" y="0" rx="30" fill="transparent" stroke="transparent" stroke-width="0" stroke-opacity="100%" paint-order="stroke"></rect><svg width="256px" height="256px" viewBox="0 0 24 24" fill="currentColor" x="128" y="128" role="img" style="display:inline-block;vertical-align:middle" xmlns="http://www.w3.org/2000/svg"><g fill="currentColor"><path fill="currentColor" d="M21 2H6a2 2 0 0 0-2 2v3H2v2h2v2H2v2h2v2H2v2h2v3a2 2 0 0 0 2 2h15a1 1 0 0 0 1-1V3a1 1 0 0 0-1-1zm-8 2.999c1.648 0 3 1.351 3 3A3.012 3.012 0 0 1 13 11c-1.647 0-3-1.353-3-3.001c0-1.649 1.353-3 3-3zM19 18H7v-.75c0-2.219 2.705-4.5 6-4.5s6 2.281 6 4.5V18z"/></g></svg></svg>