<svg width="512" height="512" viewBox="0 0 512 512" style="color:currentColor" xmlns="http://www.w3.org/2000/svg" class="h-full w-full"><rect width="512" height="512" x="0" y="0" rx="30" fill="transparent" stroke="transparent" stroke-width="0" stroke-opacity="100%" paint-order="stroke"></rect><svg width="256px" height="256px" viewBox="0 0 32 32" fill="currentColor" x="128" y="128" role="img" style="display:inline-block;vertical-align:middle" xmlns="http://www.w3.org/2000/svg"><g fill="currentColor"><path fill="currentColor" d="M26 30h-2v-3a5.006 5.006 0 0 0-5-5h-6a5.006 5.006 0 0 0-5 5v3H6v-3a7.008 7.008 0 0 1 7-7h6a7.008 7.008 0 0 1 7 7zM5 6a1 1 0 0 0-1 1v9h2V7a1 1 0 0 0-1-1z"/><path fill="currentColor" d="M4 2v2h5v7a7 7 0 0 0 14 0V4h5V2Zm7 2h10v3H11Zm5 12a5 5 0 0 1-5-5V9h10v2a5 5 0 0 1-5 5Z"/></g></svg></svg>