<svg width="512" height="70" viewBox="0 0 512 512" style="color:currentColor" xmlns="http://www.w3.org/2000/svg" class="h-full w-full"><rect width="512" height="512" x="0" y="0" rx="30" fill="transparent" stroke="transparent" stroke-width="0" stroke-opacity="100%" paint-order="stroke"></rect><svg width="256px" height="256px" viewBox="0 0 32 32" fill="currentColor" x="128" y="128" role="img" style="display:inline-block;vertical-align:middle" xmlns="http://www.w3.org/2000/svg"><g fill="currentColor"><path fill="currentColor" d="M32 6v20c0 1.135-.865 2-2 2h-2V9.849l-12 8.62l-12-8.62V28H2c-1.135 0-2-.865-2-2V6c0-.568.214-1.068.573-1.422A1.973 1.973 0 0 1 2 4h.667L16 13.667L29.333 4H30c.568 0 1.068.214 1.427.578c.359.354.573.854.573 1.422z"/></g></svg></svg>